<svg version="1.1" id="Layer_1" xmlns="http://www.w3.org/2000/svg" xmlns:xlink="http://www.w3.org/1999/xlink" x="0px" y="0px"
	 width="100%" viewBox="0 0 512 512" enable-background="new 0 0 512 512" xml:space="preserve">
<path fill="#0B3A83" opacity="1.000000" stroke="none" 
	d="
M1.000002,279.468658 
	C3.340178,278.338226 5.647029,277.299377 8.027100,277.089081 
	C13.932523,276.567169 16.981495,279.531494 16.986652,285.475281 
	C17.008484,310.639069 16.996740,335.802887 16.997089,360.966675 
	C16.997295,375.798340 16.997173,390.629974 16.997200,405.461639 
	C16.997202,407.242157 16.997200,409.022644 16.997200,412.176544 
	C19.310160,410.009552 20.731771,408.750946 22.072197,407.411102 
	C55.309650,374.188202 88.536942,340.955139 121.769974,307.727814 
	C129.346161,300.152954 132.721161,300.140869 140.328400,307.878784 
	C143.007523,310.603912 145.421356,313.589844 147.922592,316.418549 
	C157.599136,306.397217 166.568359,297.108368 175.842392,287.503876 
	C166.746155,272.980835 159.254639,256.371216 154.765106,238.423370 
	C154.409866,237.003235 151.913681,235.260620 150.318817,235.160553 
	C144.176758,234.775146 137.995453,235.070816 131.830948,234.973633 
	C123.922554,234.848969 121.006088,231.900467 121.004417,224.237091 
	C121.000465,206.072495 120.986488,187.907852 121.013031,169.743301 
	C121.023300,162.715393 123.643944,160.055328 130.535477,160.012451 
	C137.034500,159.972015 143.536850,159.883698 150.031937,160.046936 
	C153.114670,160.124405 154.343567,158.872482 155.069855,155.936493 
	C159.183105,139.308380 165.666473,123.642883 175.302490,108.304054 
	C170.647888,103.811157 165.827637,99.271103 161.134979,94.602791 
	C153.740540,87.246750 153.794678,82.706322 161.176224,75.328583 
	C172.609436,63.901295 184.032761,52.464108 195.465164,41.036011 
	C202.611145,33.892715 206.343628,33.848660 213.297714,40.801136 
	C217.422470,44.924923 221.417892,49.194771 225.772476,53.059811 
	C226.817062,53.986958 229.507446,54.331631 230.683533,53.645664 
	C245.342010,45.095814 260.771118,38.587646 277.348328,34.774376 
	C278.473145,34.515636 279.806580,32.210613 279.870636,30.803894 
	C280.150818,24.650499 280.212402,18.467501 279.927368,12.314979 
	C279.740204,8.275634 280.594818,4.803151 283.094360,1.370798 
	C305.354218,1.000000 327.708466,1.000000 350.457123,1.373975 
	C353.726501,4.494073 354.192780,7.908103 354.056824,11.717589 
	C353.837219,17.871073 353.781372,24.051683 354.153442,30.190701 
	C354.251953,31.815990 355.901123,34.383232 357.290741,34.736095 
	C373.398773,38.826385 388.661774,44.882202 402.893982,53.469891 
	C405.228302,54.878399 406.877563,54.885979 408.888855,52.721161 
	C413.306152,47.966766 417.974060,43.440086 422.634644,38.918343 
	C426.966614,34.715370 432.009674,34.620300 436.311249,38.878250 
	C449.684418,52.115791 462.993408,65.419121 476.227234,78.795944 
	C480.296112,82.908821 480.109772,87.182968 475.979706,91.474899 
	C472.516357,95.073959 468.933716,98.558281 465.401917,102.091370 
	C459.438141,108.057320 459.732849,107.924744 463.016846,115.278610 
	C469.514130,129.828018 475.650238,144.538727 482.217468,159.839325 
	C491.547638,161.555771 502.814484,157.155457 513.000000,163.000000 
	C513.000000,185.687561 513.000000,208.375122 512.625488,231.457611 
	C508.691254,232.900253 505.177094,234.603668 501.561890,234.855362 
	C494.633026,235.337799 487.646729,234.995667 482.169067,234.995667 
	C474.606812,253.075974 467.456024,270.172546 460.053162,287.871796 
	C464.594055,292.316345 469.740173,297.287292 474.811035,302.333893 
	C480.676971,308.171783 480.695709,311.742950 474.986572,317.495392 
	C471.116943,321.394348 467.350037,325.409058 463.290009,329.100098 
	C460.714783,331.441315 459.922150,334.009003 459.931335,337.423370 
	C460.036041,376.376068 459.997131,415.329163 459.997925,454.282135 
	C459.998169,467.099976 460.082458,479.918671 459.948853,492.735107 
	C459.915070,495.975739 460.992493,497.147614 464.253448,497.051544 
	C470.573578,496.865356 476.908813,496.832275 483.227600,497.042572 
	C493.208557,497.374756 503.451111,495.277039 513.000000,500.000000 
	C513.000000,504.329407 513.000000,508.658813 513.000000,512.994141 
	C356.645782,513.000000 200.291550,513.000000 43.512955,512.627686 
	C42.127998,511.706818 41.222111,511.010284 40.198605,510.631775 
	C23.679213,504.522766 11.905652,493.473450 5.024912,477.200531 
	C3.960487,474.683136 2.355178,472.394440 1.000001,470.000000 
	C1.000000,406.645782 1.000000,343.291534 1.000002,279.468658 
M296.004608,373.213013 
	C295.553192,376.742523 297.227539,377.856476 300.614075,377.816467 
	C311.610443,377.686584 322.610382,377.678589 333.606537,377.815491 
	C337.140808,377.859497 338.256744,376.418823 338.162262,373.048706 
	C337.994263,367.054901 338.097931,361.052124 338.153534,355.053741 
	C338.200256,350.009644 340.716156,346.970703 345.709778,345.999390 
	C365.925842,342.067261 384.541199,334.286682 401.686951,322.882355 
	C406.641205,319.587067 409.722748,320.074738 414.113678,324.367676 
	C417.926300,328.095184 421.855072,331.730713 425.375854,335.721497 
	C428.317230,339.055634 430.401520,339.402924 433.674744,335.897247 
	C440.834930,328.228485 448.450317,320.985260 455.853485,313.542084 
	C456.981537,312.407990 457.968994,311.134094 459.520538,309.351471 
	C454.160858,304.188843 449.060028,299.412476 444.119385,294.475830 
	C439.674103,290.034180 439.302094,286.927917 442.804993,281.621887 
	C453.959229,264.725830 461.513123,246.381973 465.606567,226.560242 
	C466.888336,220.353561 469.005157,218.771683 475.235870,218.677155 
	C481.066864,218.588684 486.900940,218.574371 492.731781,218.657593 
	C495.757568,218.700760 497.350250,217.759995 497.315063,214.381256 
	C497.196960,203.051361 497.222321,191.719223 497.296173,180.388611 
	C497.315552,177.412445 496.091858,176.172760 493.134155,176.217194 
	C487.636597,176.299805 482.136566,176.248764 476.637817,176.212189 
	C468.881927,176.160599 466.814819,174.615784 465.328461,167.190735 
	C461.484772,147.989700 454.039581,130.311447 443.288116,113.974319 
	C439.096497,107.605011 439.436401,105.036842 444.841339,99.585541 
	C449.610535,94.775375 454.403107,89.988388 458.679840,85.698288 
	C448.551941,75.541420 438.949860,65.911926 428.622284,55.554829 
	C423.997711,60.336937 419.118530,65.518753 414.084961,70.546013 
	C409.752014,74.873581 406.664398,75.297447 401.652039,71.984825 
	C384.623260,60.730679 366.173584,53.006268 346.150299,48.978237 
	C340.302277,47.801800 338.257996,45.189659 338.154175,39.283554 
	C338.048798,33.286411 338.032715,27.284893 338.137024,21.288065 
	C338.187958,18.358837 337.130096,17.072721 334.078094,17.097797 
	C322.747711,17.190886 311.415649,17.189358 300.085266,17.095613 
	C297.111053,17.071005 295.895081,18.144615 295.968933,21.184198 
	C296.110596,27.012844 296.036072,32.847885 295.986786,38.679729 
	C295.930969,45.283501 294.042725,47.682594 287.566223,48.982620 
	C268.213379,52.867302 250.347641,60.302589 233.832687,71.088539 
	C227.098480,75.486656 224.756119,75.194214 219.079849,69.448112 
	C214.425156,64.736137 209.887177,59.908844 206.099533,55.967308 
	C195.458450,66.288170 185.606384,75.843765 175.296432,85.843452 
	C180.366653,90.816765 185.592560,95.929268 190.802521,101.057961 
	C194.248947,104.450638 194.852219,108.256561 192.125610,112.323982 
	C180.472748,129.707123 172.568436,148.628189 168.533905,169.174408 
	C167.601471,173.922913 164.610565,176.303085 159.698746,176.271698 
	C153.700272,176.233368 147.699295,176.379410 141.703232,176.257217 
	C138.463028,176.191193 136.831894,177.074249 136.889404,180.745132 
	C137.064285,191.906937 137.062988,203.074951 136.889511,214.236816 
	C136.832779,217.887329 138.423904,218.832489 141.685410,218.741577 
	C146.680496,218.602341 151.682495,218.702805 156.681519,218.716629 
	C165.856506,218.741989 167.220932,219.886810 169.140457,228.736771 
	C175.837265,259.612366 190.694626,285.923004 213.695343,307.547699 
	C234.194031,326.820099 258.214783,339.506104 285.796783,345.360992 
	C294.776733,347.267212 295.988129,348.889160 295.998169,358.273499 
	C296.003143,362.939301 296.000092,367.605072 296.004608,373.213013 
M136.507629,401.992371 
	C122.321648,387.769196 108.135666,373.545990 94.478119,359.852631 
	C71.490715,382.466217 48.610386,404.111816 26.788645,426.776642 
	C14.422190,439.620911 13.479123,460.161743 22.332813,475.746277 
	C36.697090,501.030701 70.242996,505.427368 91.513176,484.531952 
	C112.072441,464.334900 132.316742,443.817200 152.689331,423.430267 
	C153.491867,422.627167 154.189941,421.719635 155.228302,420.525421 
	C149.051605,414.412292 143.029633,408.452301 136.507629,401.992371 
M443.882080,458.500000 
	C443.882080,422.124298 443.882080,385.748566 443.882080,349.372864 
	C443.305389,349.057098 442.728699,348.741333 442.152008,348.425568 
	C440.118103,350.790894 438.242432,353.318665 436.016602,355.486938 
	C431.659637,359.731171 427.754852,359.726807 423.351929,355.603943 
	C420.434448,352.872101 417.669708,349.976990 414.839874,347.151703 
	C406.388245,338.713745 406.433136,338.794678 395.831970,344.549744 
	C393.169983,345.994843 391.993835,347.646576 391.999390,350.764374 
	C392.083984,398.250427 392.082886,445.736633 392.008667,493.222687 
	C392.003357,496.614014 393.042725,497.963074 396.572449,497.929321 
	C410.733673,497.793762 424.897980,497.781982 439.058777,497.939178 
	C442.785797,497.980530 443.991272,496.639771 443.937286,492.989349 
	C443.772278,481.828369 443.880188,470.663422 443.882080,458.500000 
M241.806503,372.500000 
	C241.806625,368.669403 241.253387,364.740784 241.911026,361.026611 
	C243.854034,350.052826 239.700531,343.098083 229.345078,339.199921 
	C226.686569,338.199127 224.986038,337.648438 222.794754,339.897614 
	C215.241013,347.650879 207.578873,355.301270 199.835159,362.865021 
	C197.585083,365.062805 197.871124,366.637421 200.011429,368.613037 
	C202.823593,371.208923 205.492828,373.966125 208.134705,376.738586 
	C212.683060,381.511810 212.708664,385.424408 208.108948,390.164154 
	C203.121979,395.302887 197.835297,400.162689 193.045807,405.474609 
	C191.449387,407.245087 190.147186,410.029236 190.129745,412.360596 
	C189.929062,439.173218 190.068878,465.988251 189.928146,492.801605 
	C189.907532,496.729340 191.149521,498.004608 195.064850,497.950653 
	C208.552597,497.764679 222.050797,497.644196 235.531677,498.001740 
	C240.760544,498.140411 241.924789,496.311371 241.903183,491.415039 
	C241.729630,452.110657 241.806122,412.805145 241.806503,372.500000 
M308.983398,396.867767 
	C309.239075,393.895508 307.512451,393.198883 304.969757,393.223145 
	C299.974213,393.270782 294.976440,393.284454 289.981903,393.191071 
	C283.029816,393.061127 280.367828,390.426971 280.235840,383.423248 
	C280.116608,377.096893 280.321259,370.762329 280.095398,364.441650 
	C280.040039,362.892151 279.206299,360.384338 278.144043,360.018127 
	C271.605896,357.764252 264.899628,355.997986 257.844696,353.952179 
	C257.580627,355.719879 257.228760,356.979340 257.227936,358.239044 
	C257.198425,403.204407 257.233093,448.169830 257.143066,493.135040 
	C257.135590,496.867981 258.463043,498.033234 262.116943,497.989105 
	C275.438080,497.828156 288.762329,497.933868 302.085419,497.927002 
	C308.982544,497.923431 308.997650,497.911987 308.998535,491.221619 
	C309.002625,460.078918 308.997681,428.936218 308.983398,396.867767 
M338.513153,497.879272 
	C348.679108,497.879211 358.845093,497.885651 369.011047,497.876831 
	C376.257416,497.870544 376.280029,497.861389 376.281189,490.866455 
	C376.288422,447.369476 376.289001,403.872498 376.270447,360.375519 
	C376.269623,358.448395 376.061371,356.521332 375.921143,354.100525 
	C368.939880,356.134216 362.527222,357.821259 356.281219,359.988525 
	C355.155457,360.379150 354.114594,362.723999 354.061310,364.203583 
	C353.815582,371.027954 354.064514,377.869019 353.878906,384.697083 
	C353.729675,390.186707 350.928741,392.943390 345.450928,393.147278 
	C340.624237,393.326935 335.766907,393.489685 330.959290,393.148956 
	C326.155273,392.808502 324.677307,394.525787 324.710480,399.354340 
	C324.907440,428.017639 324.806854,456.683014 324.806427,485.347687 
	C324.806244,497.879761 324.806427,497.879761 338.513153,497.879272 
M135.628006,378.871979 
	C145.709625,388.979279 155.791229,399.086548 165.532547,408.852692 
	C174.437576,399.887573 182.904053,391.363983 190.587540,383.628693 
	C170.656555,363.719482 150.369370,343.454468 130.696716,323.803284 
	C122.758911,331.527222 114.222763,339.833344 104.954399,348.851990 
	C114.965309,358.645355 125.047195,368.508148 135.628006,378.871979 
M135.997971,463.498047 
	C125.205101,474.271942 114.412239,485.045837 102.853706,496.584076 
	C105.310432,496.791016 106.567101,496.988037 107.823959,496.989197 
	C128.151718,497.008057 148.480606,496.891266 168.806396,497.091797 
	C173.048096,497.133636 174.119308,495.729126 174.083420,491.669586 
	C173.903717,471.343384 174.008331,451.014771 173.984436,430.687012 
	C173.982986,429.461639 173.734344,428.236542 173.447617,425.607574 
	C160.556305,438.652679 148.527145,450.825378 135.997971,463.498047 
M210.721939,325.956879 
	C202.689911,318.044037 194.657883,310.131165 186.872543,302.461304 
	C178.097839,311.228882 169.312164,320.007385 160.932465,328.380249 
	C169.235321,336.617310 177.810623,345.124664 186.644119,353.888153 
	C194.622208,345.945435 202.984543,337.668823 211.234528,329.281708 
	C211.711807,328.796509 211.275360,327.412537 210.721939,325.956879 
z"/>
<path fill="#2185E9" opacity="1.000000" stroke="none" 
	d="
M296.002625,372.741943 
	C296.000092,367.605072 296.003143,362.939301 295.998169,358.273499 
	C295.988129,348.889160 294.776733,347.267212 285.796783,345.360992 
	C258.214783,339.506104 234.194031,326.820099 213.695343,307.547699 
	C190.694626,285.923004 175.837265,259.612366 169.140457,228.736771 
	C167.220932,219.886810 165.856506,218.741989 156.681519,218.716629 
	C151.682495,218.702805 146.680496,218.602341 141.685410,218.741577 
	C138.423904,218.832489 136.832779,217.887329 136.889511,214.236816 
	C137.062988,203.074951 137.064285,191.906937 136.889404,180.745132 
	C136.831894,177.074249 138.463028,176.191193 141.703232,176.257217 
	C147.699295,176.379410 153.700272,176.233368 159.698746,176.271698 
	C164.610565,176.303085 167.601471,173.922913 168.533905,169.174408 
	C172.568436,148.628189 180.472748,129.707123 192.125610,112.323982 
	C194.852219,108.256561 194.248947,104.450638 190.802521,101.057961 
	C185.592560,95.929268 180.366653,90.816765 175.296432,85.843452 
	C185.606384,75.843765 195.458450,66.288170 206.099533,55.967308 
	C209.887177,59.908844 214.425156,64.736137 219.079849,69.448112 
	C224.756119,75.194214 227.098480,75.486656 233.832687,71.088539 
	C250.347641,60.302589 268.213379,52.867302 287.566223,48.982620 
	C294.042725,47.682594 295.930969,45.283501 295.986786,38.679729 
	C296.036072,32.847885 296.110596,27.012844 295.968933,21.184198 
	C295.895081,18.144615 297.111053,17.071005 300.085266,17.095613 
	C311.415649,17.189358 322.747711,17.190886 334.078094,17.097797 
	C337.130096,17.072721 338.187958,18.358837 338.137024,21.288065 
	C338.032715,27.284893 338.048798,33.286411 338.154175,39.283554 
	C338.257996,45.189659 340.302277,47.801800 346.150299,48.978237 
	C366.173584,53.006268 384.623260,60.730679 401.652039,71.984825 
	C406.664398,75.297447 409.752014,74.873581 414.084961,70.546013 
	C419.118530,65.518753 423.997711,60.336937 428.622284,55.554829 
	C438.949860,65.911926 448.551941,75.541420 458.679840,85.698288 
	C454.403107,89.988388 449.610535,94.775375 444.841339,99.585541 
	C439.436401,105.036842 439.096497,107.605011 443.288116,113.974319 
	C454.039581,130.311447 461.484772,147.989700 465.328461,167.190735 
	C466.814819,174.615784 468.881927,176.160599 476.637817,176.212189 
	C482.136566,176.248764 487.636597,176.299805 493.134155,176.217194 
	C496.091858,176.172760 497.315552,177.412445 497.296173,180.388611 
	C497.222321,191.719223 497.196960,203.051361 497.315063,214.381256 
	C497.350250,217.759995 495.757568,218.700760 492.731781,218.657593 
	C486.900940,218.574371 481.066864,218.588684 475.235870,218.677155 
	C469.005157,218.771683 466.888336,220.353561 465.606567,226.560242 
	C461.513123,246.381973 453.959229,264.725830 442.804993,281.621887 
	C439.302094,286.927917 439.674103,290.034180 444.119385,294.475830 
	C449.060028,299.412476 454.160858,304.188843 459.520538,309.351471 
	C457.968994,311.134094 456.981537,312.407990 455.853485,313.542084 
	C448.450317,320.985260 440.834930,328.228485 433.674744,335.897247 
	C430.401520,339.402924 428.317230,339.055634 425.375854,335.721497 
	C421.855072,331.730713 417.926300,328.095184 414.113678,324.367676 
	C409.722748,320.074738 406.641205,319.587067 401.686951,322.882355 
	C384.541199,334.286682 365.925842,342.067261 345.709778,345.999390 
	C340.716156,346.970703 338.200256,350.009644 338.153534,355.053741 
	C338.097931,361.052124 337.994263,367.054901 338.162262,373.048706 
	C338.256744,376.418823 337.140808,377.859497 333.606537,377.815491 
	C322.610382,377.678589 311.610443,377.686584 300.614075,377.816467 
	C297.227539,377.856476 295.553192,376.742523 296.002625,372.741943 
M203.849655,249.619888 
	C233.409943,312.336548 306.542633,339.446198 368.765930,310.752899 
	C431.386688,281.876312 458.643066,208.169220 429.901306,145.429749 
	C401.572968,83.592735 327.775391,56.002430 265.806732,84.080605 
	C202.914612,112.577202 175.293884,185.691620 203.849655,249.619888 
z"/>
<path fill="#8CD0FE" opacity="1.000000" stroke="none" 
	d="
M136.757660,402.242371 
	C143.029633,408.452301 149.051605,414.412292 155.228302,420.525421 
	C154.189941,421.719635 153.491867,422.627167 152.689331,423.430267 
	C132.316742,443.817200 112.072441,464.334900 91.513176,484.531952 
	C70.242996,505.427368 36.697090,501.030701 22.332813,475.746277 
	C13.479123,460.161743 14.422190,439.620911 26.788645,426.776642 
	C48.610386,404.111816 71.490715,382.466217 94.478119,359.852631 
	C108.135666,373.545990 122.321648,387.769196 136.757660,402.242371 
z"/>
<path fill="#2185E9" opacity="1.000000" stroke="none" 
	d="
M443.882019,459.000000 
	C443.880188,470.663422 443.772278,481.828369 443.937286,492.989349 
	C443.991272,496.639771 442.785797,497.980530 439.058777,497.939178 
	C424.897980,497.781982 410.733673,497.793762 396.572449,497.929321 
	C393.042725,497.963074 392.003357,496.614014 392.008667,493.222687 
	C392.082886,445.736633 392.083984,398.250427 391.999390,350.764374 
	C391.993835,347.646576 393.169983,345.994843 395.831970,344.549744 
	C406.433136,338.794678 406.388245,338.713745 414.839874,347.151703 
	C417.669708,349.976990 420.434448,352.872101 423.351929,355.603943 
	C427.754852,359.726807 431.659637,359.731171 436.016602,355.486938 
	C438.242432,353.318665 440.118103,350.790894 442.152008,348.425568 
	C442.728699,348.741333 443.305389,349.057098 443.882080,349.372864 
	C443.882080,385.748566 443.882080,422.124298 443.882019,459.000000 
z"/>
<path fill="#2185E9" opacity="1.000000" stroke="none" 
	d="
M241.806320,373.000000 
	C241.806122,412.805145 241.729630,452.110657 241.903183,491.415039 
	C241.924789,496.311371 240.760544,498.140411 235.531677,498.001740 
	C222.050797,497.644196 208.552597,497.764679 195.064850,497.950653 
	C191.149521,498.004608 189.907532,496.729340 189.928146,492.801605 
	C190.068878,465.988251 189.929062,439.173218 190.129745,412.360596 
	C190.147186,410.029236 191.449387,407.245087 193.045807,405.474609 
	C197.835297,400.162689 203.121979,395.302887 208.108948,390.164154 
	C212.708664,385.424408 212.683060,381.511810 208.134705,376.738586 
	C205.492828,373.966125 202.823593,371.208923 200.011429,368.613037 
	C197.871124,366.637421 197.585083,365.062805 199.835159,362.865021 
	C207.578873,355.301270 215.241013,347.650879 222.794754,339.897614 
	C224.986038,337.648438 226.686569,338.199127 229.345078,339.199921 
	C239.700531,343.098083 243.854034,350.052826 241.911026,361.026611 
	C241.253387,364.740784 241.806625,368.669403 241.806320,373.000000 
z"/>
<path fill="#2185E9" opacity="1.000000" stroke="none" 
	d="
M308.989685,397.330627 
	C308.997681,428.936218 309.002625,460.078918 308.998535,491.221619 
	C308.997650,497.911987 308.982544,497.923431 302.085419,497.927002 
	C288.762329,497.933868 275.438080,497.828156 262.116943,497.989105 
	C258.463043,498.033234 257.135590,496.867981 257.143066,493.135040 
	C257.233093,448.169830 257.198425,403.204407 257.227936,358.239044 
	C257.228760,356.979340 257.580627,355.719879 257.844696,353.952179 
	C264.899628,355.997986 271.605896,357.764252 278.144043,360.018127 
	C279.206299,360.384338 280.040039,362.892151 280.095398,364.441650 
	C280.321259,370.762329 280.116608,377.096893 280.235840,383.423248 
	C280.367828,390.426971 283.029816,393.061127 289.981903,393.191071 
	C294.976440,393.284454 299.974213,393.270782 304.969757,393.223145 
	C307.512451,393.198883 309.239075,393.895508 308.989685,397.330627 
z"/>
<path fill="#2186EA" opacity="1.000000" stroke="none" 
	d="
M338.016235,497.879181 
	C324.806427,497.879761 324.806244,497.879761 324.806427,485.347687 
	C324.806854,456.683014 324.907440,428.017639 324.710480,399.354340 
	C324.677307,394.525787 326.155273,392.808502 330.959290,393.148956 
	C335.766907,393.489685 340.624237,393.326935 345.450928,393.147278 
	C350.928741,392.943390 353.729675,390.186707 353.878906,384.697083 
	C354.064514,377.869019 353.815582,371.027954 354.061310,364.203583 
	C354.114594,362.723999 355.155457,360.379150 356.281219,359.988525 
	C362.527222,357.821259 368.939880,356.134216 375.921143,354.100525 
	C376.061371,356.521332 376.269623,358.448395 376.270447,360.375519 
	C376.289001,403.872498 376.288422,447.369476 376.281189,490.866455 
	C376.280029,497.861389 376.257416,497.870544 369.011047,497.876831 
	C358.845093,497.885651 348.679108,497.879211 338.016235,497.879181 
z"/>
<path fill="#2185E8" opacity="1.000000" stroke="none" 
	d="
M135.378540,378.621460 
	C125.047195,368.508148 114.965309,358.645355 104.954399,348.851990 
	C114.222763,339.833344 122.758911,331.527222 130.696716,323.803284 
	C150.369370,343.454468 170.656555,363.719482 190.587540,383.628693 
	C182.904053,391.363983 174.437576,399.887573 165.532547,408.852692 
	C155.791229,399.086548 145.709625,388.979279 135.378540,378.621460 
z"/>
<path fill="#8CD0FE" opacity="1.000000" stroke="none" 
	d="
M210.993042,326.201843 
	C211.275360,327.412537 211.711807,328.796509 211.234528,329.281708 
	C202.984543,337.668823 194.622208,345.945435 186.644119,353.888153 
	C177.810623,345.124664 169.235321,336.617310 160.932465,328.380249 
	C169.312164,320.007385 178.097839,311.228882 186.872543,302.461304 
	C194.657883,310.131165 202.689911,318.044037 210.993042,326.201843 
z"/>
<path fill="#0D3C84" opacity="1.000000" stroke="none" 
	d="
M203.688934,249.278534 
	C175.293884,185.691620 202.914612,112.577202 265.806732,84.080605 
	C327.775391,56.002430 401.572968,83.592735 429.901306,145.429749 
	C458.643066,208.169220 431.386688,281.876312 368.765930,310.752899 
	C306.542633,339.446198 233.409943,312.336548 203.688934,249.278534 
M324.882233,203.499969 
	C324.882233,237.591476 324.882233,271.682983 324.882233,306.040802 
	C342.495300,304.568878 358.154633,299.516235 372.763580,290.961731 
	C375.582733,289.310944 376.584351,287.408966 376.550476,284.179382 
	C376.393219,269.184357 376.479980,254.186768 376.482483,239.190094 
	C376.484222,228.692444 376.414368,218.193970 376.526154,207.697464 
	C376.586029,202.075867 379.261108,198.919937 383.760193,198.638840 
	C388.738068,198.327820 392.024414,201.760925 392.039429,207.613831 
	C392.092377,228.275787 392.062073,248.937958 392.063324,269.600037 
	C392.063416,271.346588 392.063354,273.093109 392.063354,275.334076 
	C418.904510,252.065079 434.204376,207.046295 420.376221,164.447754 
	C405.152344,117.549751 362.384705,87.740990 312.093658,88.967239 
	C265.778900,90.096535 224.270264,123.548630 211.673462,169.620529 
	C200.133316,211.827820 217.499237,255.056488 241.936615,275.246094 
	C241.936615,273.095734 241.936615,271.323120 241.936615,269.550507 
	C241.936630,239.890411 241.936371,210.230316 241.937439,180.570221 
	C241.937500,179.070587 241.877930,177.566696 241.968094,176.072128 
	C242.244843,171.484756 245.197311,168.330826 249.342438,168.113953 
	C253.591858,167.891647 256.974121,171.090378 257.415100,175.884811 
	C257.582458,177.704102 257.514282,179.547150 257.514557,181.379379 
	C257.519501,215.538467 257.573914,249.697784 257.438019,283.856323 
	C257.423523,287.502045 258.409485,289.898285 261.772980,291.302826 
	C270.957611,295.138031 279.962646,299.490417 289.359131,302.700104 
	C295.475464,304.789337 302.152100,305.238251 309.117798,306.521515 
	C309.117798,303.388275 309.117798,301.409637 309.117798,299.431030 
	C309.117798,241.943771 309.116577,184.456512 309.123627,126.969246 
	C309.123840,125.138397 308.970367,123.262871 309.303070,121.485771 
	C310.061554,117.434235 312.457550,114.875038 316.771423,114.780678 
	C321.323608,114.681099 323.870667,117.251633 324.704590,121.532539 
	C325.018585,123.144310 324.875793,124.852509 324.876343,126.516777 
	C324.884674,151.844498 324.882202,177.172211 324.882233,203.499969 
z"/>
<path fill="#8DD0FF" opacity="1.000000" stroke="none" 
	d="
M324.882233,202.999954 
	C324.882202,177.172211 324.884674,151.844498 324.876343,126.516777 
	C324.875793,124.852509 325.018585,123.144310 324.704590,121.532539 
	C323.870667,117.251633 321.323608,114.681099 316.771423,114.780678 
	C312.457550,114.875038 310.061554,117.434235 309.303070,121.485771 
	C308.970367,123.262871 309.123840,125.138397 309.123627,126.969246 
	C309.116577,184.456512 309.117798,241.943771 309.117798,299.431030 
	C309.117798,301.409637 309.117798,303.388275 309.117798,306.521515 
	C302.152100,305.238251 295.475464,304.789337 289.359131,302.700104 
	C279.962646,299.490417 270.957611,295.138031 261.772980,291.302826 
	C258.409485,289.898285 257.423523,287.502045 257.438019,283.856323 
	C257.573914,249.697784 257.519501,215.538467 257.514557,181.379379 
	C257.514282,179.547150 257.582458,177.704102 257.415100,175.884811 
	C256.974121,171.090378 253.591858,167.891647 249.342438,168.113953 
	C245.197311,168.330826 242.244843,171.484756 241.968094,176.072128 
	C241.877930,177.566696 241.937500,179.070587 241.937439,180.570221 
	C241.936371,210.230316 241.936630,239.890411 241.936615,269.550507 
	C241.936615,271.323120 241.936615,273.095734 241.936615,275.246094 
	C217.499237,255.056488 200.133316,211.827820 211.673462,169.620529 
	C224.270264,123.548630 265.778900,90.096535 312.093658,88.967239 
	C362.384705,87.740990 405.152344,117.549751 420.376221,164.447754 
	C434.204376,207.046295 418.904510,252.065079 392.063354,275.334076 
	C392.063354,273.093109 392.063416,271.346588 392.063324,269.600037 
	C392.062073,248.937958 392.092377,228.275787 392.039429,207.613831 
	C392.024414,201.760925 388.738068,198.327820 383.760193,198.638840 
	C379.261108,198.919937 376.586029,202.075867 376.526154,207.697464 
	C376.414368,218.193970 376.484222,228.692444 376.482483,239.190094 
	C376.479980,254.186768 376.393219,269.184357 376.550476,284.179382 
	C376.584351,287.408966 375.582733,289.310944 372.763580,290.961731 
	C358.154633,299.516235 342.495300,304.568878 324.882233,306.040802 
	C324.882233,271.682983 324.882233,237.591476 324.882233,202.999954 
z"/>
</svg>